<?xml version="1.0" encoding="UTF-8" standalone="no"?>
<!DOCTYPE svg PUBLIC "-//W3C//DTD SVG 1.1//EN"
 "http://www.w3.org/Graphics/SVG/1.1/DTD/svg11.dtd">
<!-- Generated by graphviz version 12.2.1 (20241206.2353)
 -->
<!-- Pages: 1 -->
<svg width="1115pt" height="562pt"
 viewBox="0.00 0.00 1115.00 562.04" xmlns="http://www.w3.org/2000/svg" xmlns:xlink="http://www.w3.org/1999/xlink">
<g id="graph0" class="graph" transform="scale(1 1) rotate(0) translate(4 558.04)">
<polygon fill="white" stroke="none" points="-4,4 -4,-558.04 1111,-558.04 1111,4 -4,4"/>
<!-- Nr1 -->
<g id="node1" class="node">
<title>Nr1</title>
<polygon fill="#4c6dfe" stroke="#4c6dfe" points="629.07,-512.56 640.05,-522.25 640.06,-536.16 632.28,-546.01 615.48,-549.91 592.65,-548.76 577.65,-541.32 583.48,-527.74 606.29,-514.97 629.07,-512.56"/>
<text text-anchor="middle" x="613" y="-527.87" font-family="Arial" font-size="14.00">Nr1</text>
</g>
<!-- Nr2 -->
<g id="node2" class="node">
<title>Nr2</title>
<polygon fill="#53cfba" stroke="#53cfba" points="447.37,-434.2 455.85,-446.75 444.47,-456.91 421.51,-460.06 393.16,-454.52 368.14,-442.66 361.13,-430.18 380.98,-423.17 417.39,-424.87 447.37,-434.2"/>
<text text-anchor="middle" x="410" y="-436.06" font-family="Arial" font-size="14.00">Nr2</text>
</g>
<!-- Nr1&#45;&gt;Nr2 -->
<g id="edge1" class="edge">
<title>Nr1&#45;&gt;Nr2</title>
<path fill="none" stroke="#ab8439" d="M582.79,-528.42C552.8,-523.65 506.2,-513.71 470,-494.56 456.85,-487.61 444.14,-477.28 433.82,-467.64"/>
<polygon fill="#ab8439" stroke="#ab8439" points="436.46,-465.33 426.85,-460.86 431.58,-470.34 436.46,-465.33"/>
<text text-anchor="middle" x="483.5" y="-481.26" font-family="Times New Roman,serif" font-size="14.00">2943</text>
</g>
<!-- Nr1&#45;&gt;Nr2 -->
<g id="edge16" class="edge">
<title>Nr1&#45;&gt;Nr2</title>
<path fill="none" stroke="#19fdb1" d="M589.63,-524.02C570.91,-517.05 544.2,-506.36 522,-494.56 510.24,-488.32 508.77,-484.28 497,-478.06 484.25,-471.33 469.93,-465 456.65,-459.61"/>
<polygon fill="#19fdb1" stroke="#19fdb1" points="458.27,-456.48 447.68,-456.05 455.68,-462.99 458.27,-456.48"/>
<text text-anchor="middle" x="535.5" y="-481.26" font-family="Times New Roman,serif" font-size="14.00">4073</text>
</g>
<!-- Nr1&#45;&gt;Nr2 -->
<g id="edge31" class="edge">
<title>Nr1&#45;&gt;Nr2</title>
<path fill="none" stroke="#491f2a" d="M581.81,-530.7C532.04,-527.47 438.03,-518.3 416,-494.56 409.71,-487.79 407.47,-478.2 407.05,-469.09"/>
<polygon fill="#491f2a" stroke="#491f2a" points="410.55,-469.28 407.32,-459.18 403.55,-469.08 410.55,-469.28"/>
<text text-anchor="middle" x="429.5" y="-481.26" font-family="Times New Roman,serif" font-size="14.00">4261</text>
</g>
<!-- Nr3 -->
<g id="node3" class="node">
<title>Nr3</title>
<polygon fill="#cf9a6c" stroke="#cf9a6c" points="198.78,-363.02 200.3,-348.8 218.67,-337.31 243.13,-335.29 274.5,-342.67 294.41,-355.12 276.05,-366.61 230.16,-370.4 198.78,-363.02"/>
<text text-anchor="middle" x="242" y="-346.98" font-family="Arial" font-size="14.00">Nr3</text>
</g>
<!-- Nr1&#45;&gt;Nr3 -->
<g id="edge2" class="edge">
<title>Nr1&#45;&gt;Nr3</title>
<path fill="none" stroke="#a3b5d6" d="M580.77,-532.83C481.57,-534 182.26,-534.11 95,-494.56 62.71,-479.93 46.32,-455.6 60,-422.9 68.43,-402.75 75.89,-398.99 95,-388.4 123.46,-372.63 158.85,-363.93 187.78,-359.14"/>
<polygon fill="#a3b5d6" stroke="#a3b5d6" points="188.07,-362.64 197.42,-357.67 187.01,-355.72 188.07,-362.64"/>
<text text-anchor="middle" x="73.5" y="-436.43" font-family="Times New Roman,serif" font-size="14.00">2943</text>
</g>
<!-- Nr1&#45;&gt;Nr3 -->
<g id="edge17" class="edge">
<title>Nr1&#45;&gt;Nr3</title>
<path fill="none" stroke="#0f461b" d="M581.21,-532.45C490.74,-532.43 233.54,-529.25 158,-494.56 112.85,-473.83 93.24,-428.18 123,-388.4 138.09,-368.23 164.24,-359.19 188.18,-355.31"/>
<polygon fill="#0f461b" stroke="#0f461b" points="188.39,-358.82 197.84,-354.04 187.47,-351.88 188.39,-358.82"/>
<text text-anchor="middle" x="131.1" y="-436.43" font-family="Times New Roman,serif" font-size="14.00">4073</text>
</g>
<!-- Nr1&#45;&gt;Nr3 -->
<g id="edge32" class="edge">
<title>Nr1&#45;&gt;Nr3</title>
<path fill="none" stroke="#61e93d" d="M582.72,-529.07C541.6,-524.17 466.1,-513.4 404,-494.56 308.45,-465.57 252.73,-488.42 198,-404.9 191.1,-394.38 197.66,-383.65 207.63,-374.73"/>
<polygon fill="#61e93d" stroke="#61e93d" points="209.69,-377.56 215.4,-368.64 205.37,-372.06 209.69,-377.56"/>
<text text-anchor="middle" x="269.99" y="-436.43" font-family="Times New Roman,serif" font-size="14.00">4261</text>
</g>
<!-- Nr4 -->
<g id="node4" class="node">
<title>Nr4</title>
<polygon fill="#e59775" stroke="#e59775" points="502.48,-209.66 510.42,-228.12 506.83,-251.71 493.83,-266.63 469.94,-274.54 449.16,-270.81 452.75,-247.22 478.59,-217.58 502.48,-209.66"/>
<text text-anchor="middle" x="483" y="-240.36" font-family="Arial" font-size="14.00">Nr4</text>
</g>
<!-- Nr1&#45;&gt;Nr4 -->
<g id="edge3" class="edge">
<title>Nr1&#45;&gt;Nr4</title>
<path fill="none" stroke="#a0860c" d="M605.5,-515.01C588.67,-476.29 546.4,-379.76 509,-299.9 505.58,-292.59 501.8,-284.76 498.22,-277.42"/>
<polygon fill="#a0860c" stroke="#a0860c" points="501.38,-275.93 493.83,-268.49 495.1,-279.01 501.38,-275.93"/>
<text text-anchor="middle" x="569.37" y="-391.6" font-family="Times New Roman,serif" font-size="14.00">2943</text>
</g>
<!-- Nr1&#45;&gt;Nr4 -->
<g id="edge18" class="edge">
<title>Nr1&#45;&gt;Nr4</title>
<path fill="none" stroke="#47b664" d="M612.15,-513.89C610.32,-485.83 604.61,-431.12 587,-388.4 567.88,-342.04 530.42,-296.81 506.07,-270.39"/>
<polygon fill="#47b664" stroke="#47b664" points="508.79,-268.17 499.39,-263.28 503.68,-272.96 508.79,-268.17"/>
<text text-anchor="middle" x="606.3" y="-391.6" font-family="Times New Roman,serif" font-size="14.00">4073</text>
</g>
<!-- Nr1&#45;&gt;Nr4 -->
<g id="edge33" class="edge">
<title>Nr1&#45;&gt;Nr4</title>
<path fill="none" stroke="#675129" d="M619.67,-513.33C621.44,-507.4 623.11,-500.78 624,-494.56 630.67,-447.85 639.31,-433.03 624,-388.4 604.44,-331.41 546.53,-286.57 511.3,-263.62"/>
<polygon fill="#675129" stroke="#675129" points="513.62,-260.94 503.3,-258.55 509.87,-266.85 513.62,-260.94"/>
<text text-anchor="middle" x="642.34" y="-391.6" font-family="Times New Roman,serif" font-size="14.00">4261</text>
</g>
<!-- Nr5 -->
<g id="node5" class="node">
<title>Nr5</title>
<polygon fill="#d62382" stroke="#d62382" points="586.3,-139.81 579.16,-155.07 562.26,-157.16 540.26,-141.64 528.44,-121.08 537.29,-110.41 559.44,-111.15 578.41,-116.45 586.45,-125.04 586.3,-139.81"/>
<text text-anchor="middle" x="562" y="-125.44" font-family="Arial" font-size="14.00">Nr5</text>
</g>
<!-- Nr1&#45;&gt;Nr5 -->
<g id="edge4" class="edge">
<title>Nr1&#45;&gt;Nr5</title>
<path fill="none" stroke="#ac0942" d="M640.15,-532.7C697.14,-531.98 824,-521.51 824,-442.48 824,-442.48 824,-442.48 824,-244.78 824,-147.43 669.55,-133.01 597.82,-131.56"/>
<polygon fill="#ac0942" stroke="#ac0942" points="598.2,-128.06 588.16,-131.44 598.12,-135.06 598.2,-128.06"/>
<text text-anchor="middle" x="837.5" y="-347.35" font-family="Times New Roman,serif" font-size="14.00">2943</text>
</g>
<!-- Nr1&#45;&gt;Nr5 -->
<g id="edge19" class="edge">
<title>Nr1&#45;&gt;Nr5</title>
<path fill="none" stroke="#3e2b12" d="M640.53,-531.33C681.2,-529.02 759.01,-521.17 819,-494.56 853.8,-479.13 887,-480.55 887,-442.48 887,-442.48 887,-442.48 887,-244.78 887,-197.98 850.18,-195.45 808,-175.16 738.86,-141.91 647.8,-133.94 598.13,-132.19"/>
<polygon fill="#3e2b12" stroke="#3e2b12" points="598.33,-128.69 588.24,-131.92 598.14,-135.69 598.33,-128.69"/>
<text text-anchor="middle" x="900.5" y="-347.35" font-family="Times New Roman,serif" font-size="14.00">4073</text>
</g>
<!-- Nr1&#45;&gt;Nr5 -->
<g id="edge34" class="edge">
<title>Nr1&#45;&gt;Nr5</title>
<path fill="none" stroke="#598876" d="M630.48,-513.25C663.8,-474.6 731.51,-383.53 713,-299.9 699.07,-236.96 689.62,-215.07 639,-175.16 625.76,-164.72 609.68,-155.26 595.65,-147.87"/>
<polygon fill="#598876" stroke="#598876" points="597.25,-144.75 586.75,-143.32 594.07,-150.99 597.25,-144.75"/>
<text text-anchor="middle" x="729.54" y="-347.35" font-family="Times New Roman,serif" font-size="14.00">4261</text>
</g>
<!-- Nr6 -->
<g id="node6" class="node">
<title>Nr6</title>
<polygon fill="#eede75" stroke="#eede75" points="403.31,-7.02 428.99,-5.48 437.22,-15.53 419.49,-36.17 391.23,-52.07 372.82,-50.11 368.21,-34.91 370.78,-20.55 380.96,-12.47 403.31,-7.02"/>
<text text-anchor="middle" x="397" y="-20.61" font-family="Arial" font-size="14.00">Nr6</text>
</g>
<!-- Nr1&#45;&gt;Nr6 -->
<g id="edge5" class="edge">
<title>Nr1&#45;&gt;Nr6</title>
<path fill="none" stroke="#8495a7" d="M640.37,-532.46C686.56,-531.78 782.07,-526.25 855,-494.56 953.17,-451.92 951.12,-387.59 968,-281.9 973.06,-250.2 981.83,-238.64 968,-209.66 935.99,-142.62 904.92,-136.85 838,-104.57 702.86,-39.39 520.82,-28.42 439.42,-26.97"/>
<polygon fill="#8495a7" stroke="#8495a7" points="439.71,-23.47 429.67,-26.84 439.62,-30.47 439.71,-23.47"/>
<text text-anchor="middle" x="978.56" y="-303.1" font-family="Times New Roman,serif" font-size="14.00">2943</text>
</g>
<!-- Nr1&#45;&gt;Nr6 -->
<g id="edge20" class="edge">
<title>Nr1&#45;&gt;Nr6</title>
<path fill="none" stroke="#181c46" d="M640.36,-532.26C733.13,-531.42 1030,-522.46 1030,-442.48 1030,-442.48 1030,-442.48 1030,-129.87 1030,-69.62 577.51,-37.74 437.67,-29.33"/>
<polygon fill="#181c46" stroke="#181c46" points="437.96,-25.84 427.77,-28.74 437.55,-32.83 437.96,-25.84"/>
<text text-anchor="middle" x="1043.5" y="-303.1" font-family="Times New Roman,serif" font-size="14.00">4073</text>
</g>
<!-- Nr1&#45;&gt;Nr6 -->
<g id="edge35" class="edge">
<title>Nr1&#45;&gt;Nr6</title>
<path fill="none" stroke="#9fa0e4" d="M640.47,-532.89C740.57,-534.33 1080,-532.58 1080,-442.48 1080,-442.48 1080,-442.48 1080,-129.87 1080,-84 1018.88,-88.29 913,-70.07 738.31,-40.02 526.59,-30.73 438.53,-28.05"/>
<polygon fill="#9fa0e4" stroke="#9fa0e4" points="438.8,-24.55 428.7,-27.76 438.59,-31.55 438.8,-24.55"/>
<text text-anchor="middle" x="1093.5" y="-303.1" font-family="Times New Roman,serif" font-size="14.00">4261</text>
</g>
<!-- Nr2&#45;&gt;Nr3 -->
<g id="edge6" class="edge">
<title>Nr2&#45;&gt;Nr3</title>
<path fill="none" stroke="#3fbbfa" d="M364.76,-437.06C320.71,-432.69 258.24,-423.36 243,-404.9 237.66,-398.43 236.1,-389.79 236.26,-381.44"/>
<polygon fill="#3fbbfa" stroke="#3fbbfa" points="239.74,-381.89 237.28,-371.58 232.77,-381.17 239.74,-381.89"/>
<text text-anchor="middle" x="256.5" y="-391.6" font-family="Times New Roman,serif" font-size="14.00">2943</text>
</g>
<!-- Nr2&#45;&gt;Nr3 -->
<g id="edge21" class="edge">
<title>Nr2&#45;&gt;Nr3</title>
<path fill="none" stroke="#9a34cd" d="M361.36,-431.4C339.42,-425.9 313.82,-417.46 293,-404.9 280.96,-397.64 269.71,-386.9 260.85,-377.1"/>
<polygon fill="#9a34cd" stroke="#9a34cd" points="263.61,-374.94 254.43,-369.65 258.31,-379.51 263.61,-374.94"/>
<text text-anchor="middle" x="306.5" y="-391.6" font-family="Times New Roman,serif" font-size="14.00">4073</text>
</g>
<!-- Nr2&#45;&gt;Nr3 -->
<g id="edge36" class="edge">
<title>Nr2&#45;&gt;Nr3</title>
<path fill="none" stroke="#8d3126" d="M377.13,-424.15C366.1,-418.38 353.86,-411.64 343,-404.9 332.31,-398.27 330.9,-394.68 320,-388.4 309.47,-382.34 297.7,-376.58 286.56,-371.55"/>
<polygon fill="#8d3126" stroke="#8d3126" points="288.08,-368.39 277.52,-367.57 285.26,-374.8 288.08,-368.39"/>
<text text-anchor="middle" x="356.5" y="-391.6" font-family="Times New Roman,serif" font-size="14.00">4261</text>
</g>
<!-- Nr2&#45;&gt;Nr3 -->
<g id="edge46" class="edge">
<title>Nr2&#45;&gt;Nr3</title>
<path fill="none" stroke="#1536d2" d="M365.88,-439.19C312.14,-436.59 226.01,-428.71 206,-404.9 198.45,-395.93 203.59,-385.41 212.1,-376.22"/>
<polygon fill="#1536d2" stroke="#1536d2" points="214.23,-379.02 219.1,-369.61 209.43,-373.93 214.23,-379.02"/>
<text text-anchor="middle" x="219.5" y="-391.6" font-family="Times New Roman,serif" font-size="14.00">2688</text>
</g>
<!-- Nr2&#45;&gt;Nr4 -->
<g id="edge7" class="edge">
<title>Nr2&#45;&gt;Nr4</title>
<path fill="none" stroke="#d5a9a4" d="M396.94,-423.45C381.88,-403.71 359.02,-373.48 358,-370.4 352.98,-355.21 347.77,-346.7 358,-334.4 386.03,-300.69 421.07,-344.18 455,-316.4 465.27,-308 471.79,-295.27 475.94,-282.98"/>
<polygon fill="#d5a9a4" stroke="#d5a9a4" points="479.29,-283.99 478.69,-273.41 472.56,-282.05 479.29,-283.99"/>
<text text-anchor="middle" x="371.5" y="-347.35" font-family="Times New Roman,serif" font-size="14.00">2943</text>
</g>
<!-- Nr2&#45;&gt;Nr4 -->
<g id="edge22" class="edge">
<title>Nr2&#45;&gt;Nr4</title>
<path fill="none" stroke="#2ffbe6" d="M406.68,-424.08C403.07,-401.32 400.3,-360.05 421,-334.4 437.15,-314.39 459.88,-336.44 476,-316.4 483.9,-306.57 486.55,-293.27 486.9,-280.92"/>
<polygon fill="#2ffbe6" stroke="#2ffbe6" points="490.4,-280.95 486.67,-271.03 483.4,-281.11 490.4,-280.95"/>
<text text-anchor="middle" x="434.5" y="-347.35" font-family="Times New Roman,serif" font-size="14.00">4073</text>
</g>
<!-- Nr2&#45;&gt;Nr4 -->
<g id="edge37" class="edge">
<title>Nr2&#45;&gt;Nr4</title>
<path fill="none" stroke="#608d78" d="M420.36,-425.69C442.4,-394.13 492.1,-322.59 494,-316.4 497.7,-304.35 496.63,-290.71 494.05,-278.73"/>
<polygon fill="#608d78" stroke="#608d78" points="497.5,-278.1 491.58,-269.31 490.73,-279.87 497.5,-278.1"/>
<text text-anchor="middle" x="495.91" y="-347.35" font-family="Times New Roman,serif" font-size="14.00">4261</text>
</g>
<!-- Nr2&#45;&gt;Nr5 -->
<g id="edge8" class="edge">
<title>Nr2&#45;&gt;Nr5</title>
<path fill="none" stroke="#fb19b4" d="M432.84,-429.46C455.33,-417.6 489.38,-396.84 511,-370.4 565.76,-303.44 570.53,-276.38 588,-191.66 589.48,-184.48 589.96,-182.23 588,-175.16 587.12,-171.99 585.94,-168.83 584.57,-165.72"/>
<polygon fill="#fb19b4" stroke="#fb19b4" points="587.7,-164.16 580.01,-156.88 581.48,-167.37 587.7,-164.16"/>
<text text-anchor="middle" x="571.35" y="-303.1" font-family="Times New Roman,serif" font-size="14.00">2943</text>
</g>
<!-- Nr2&#45;&gt;Nr5 -->
<g id="edge23" class="edge">
<title>Nr2&#45;&gt;Nr5</title>
<path fill="none" stroke="#137a99" d="M439.27,-431.36C456.96,-425.2 479.57,-416.15 498,-404.9 546.16,-375.51 565.26,-367.58 589,-316.4 615.54,-259.18 626.34,-233.77 603,-175.16 600.17,-168.06 595.55,-161.44 590.42,-155.63"/>
<polygon fill="#137a99" stroke="#137a99" points="593.24,-153.51 583.74,-148.81 588.24,-158.4 593.24,-153.51"/>
<text text-anchor="middle" x="609.97" y="-303.1" font-family="Times New Roman,serif" font-size="14.00">4073</text>
</g>
<!-- Nr2&#45;&gt;Nr5 -->
<g id="edge38" class="edge">
<title>Nr2&#45;&gt;Nr5</title>
<path fill="none" stroke="#b5fdc5" d="M452.45,-440.85C516.62,-440.39 633.64,-435.28 660,-404.9 669.34,-394.14 729.08,-350.12 620,-175.16 613.67,-165.01 604.02,-156.41 594.4,-149.63"/>
<polygon fill="#b5fdc5" stroke="#b5fdc5" points="596.47,-146.8 586.18,-144.28 592.65,-152.67 596.47,-146.8"/>
<text text-anchor="middle" x="695.59" y="-303.1" font-family="Times New Roman,serif" font-size="14.00">4261</text>
</g>
<!-- Nr2&#45;&gt;Nr6 -->
<g id="edge9" class="edge">
<title>Nr2&#45;&gt;Nr6</title>
<path fill="none" stroke="#f5034d" d="M362.42,-433.5C339.62,-430.2 311.91,-426.26 287,-422.9 221.97,-414.13 0,-419.02 0,-353.4 0,-353.4 0,-353.4 0,-129.87 0,-95.51 18.91,-86.66 49,-70.07 101.36,-41.22 278.23,-31.31 357.73,-28.26"/>
<polygon fill="#f5034d" stroke="#f5034d" points="357.79,-31.76 367.66,-27.89 357.54,-24.76 357.79,-31.76"/>
<text text-anchor="middle" x="13.5" y="-240.73" font-family="Times New Roman,serif" font-size="14.00">2943</text>
</g>
<!-- Nr2&#45;&gt;Nr6 -->
<g id="edge24" class="edge">
<title>Nr2&#45;&gt;Nr6</title>
<path fill="none" stroke="#31257e" d="M362.89,-434.09C304.95,-425.99 212.47,-412.21 198,-404.9 127.87,-369.47 101.65,-354.26 71,-281.9 33.23,-192.74 43.99,-127.44 122,-70.07 158.82,-43 291.35,-32.44 358.06,-28.77"/>
<polygon fill="#31257e" stroke="#31257e" points="358.02,-32.28 367.82,-28.26 357.65,-25.29 358.02,-32.28"/>
<text text-anchor="middle" x="84.5" y="-240.73" font-family="Times New Roman,serif" font-size="14.00">4073</text>
</g>
<!-- Nr2&#45;&gt;Nr6 -->
<g id="edge39" class="edge">
<title>Nr2&#45;&gt;Nr6</title>
<path fill="none" stroke="#50d426" d="M450.35,-437.93C565.17,-430.26 887.42,-405.75 918,-370.4 933.59,-352.38 958.17,-245.94 901,-175.16 841.14,-101.05 543.32,-49.25 435.8,-32.7"/>
<polygon fill="#50d426" stroke="#50d426" points="436.44,-29.26 426.03,-31.22 435.39,-36.18 436.44,-29.26"/>
<text text-anchor="middle" x="950.3" y="-240.73" font-family="Times New Roman,serif" font-size="14.00">4261</text>
</g>
<!-- Nr3&#45;&gt;Nr4 -->
<g id="edge10" class="edge">
<title>Nr3&#45;&gt;Nr4</title>
<path fill="none" stroke="#1a6f5a" d="M264.23,-339.86C276.46,-333.31 291.79,-324.77 305,-316.4 315.63,-309.67 316.39,-304.74 328,-299.9 372.52,-281.37 390.57,-300.64 435,-281.9 437.8,-280.72 440.59,-279.35 443.34,-277.84"/>
<polygon fill="#1a6f5a" stroke="#1a6f5a" points="445.05,-280.9 451.75,-272.69 441.39,-274.93 445.05,-280.9"/>
<text text-anchor="middle" x="341.5" y="-303.1" font-family="Times New Roman,serif" font-size="14.00">2943</text>
</g>
<!-- Nr3&#45;&gt;Nr4 -->
<g id="edge25" class="edge">
<title>Nr3&#45;&gt;Nr4</title>
<path fill="none" stroke="#7888dd" d="M276.98,-343.67C299.88,-337.87 330.08,-328.79 355,-316.4 366.27,-310.8 366.75,-305.53 378,-299.9 401.76,-288.01 411.3,-293.9 435,-281.9 437.41,-280.68 439.83,-279.34 442.23,-277.93"/>
<polygon fill="#7888dd" stroke="#7888dd" points="444.1,-280.88 450.65,-272.55 440.33,-274.98 444.1,-280.88"/>
<text text-anchor="middle" x="391.5" y="-303.1" font-family="Times New Roman,serif" font-size="14.00">4073</text>
</g>
<!-- Nr3&#45;&gt;Nr4 -->
<g id="edge40" class="edge">
<title>Nr3&#45;&gt;Nr4</title>
<path fill="none" stroke="#562f71" d="M277.17,-343.91C324.87,-333.73 404.28,-316.77 405,-316.4 414.78,-311.43 432.73,-295.62 448.94,-280.32"/>
<polygon fill="#562f71" stroke="#562f71" points="451.3,-282.91 456.11,-273.48 446.46,-277.85 451.3,-282.91"/>
<text text-anchor="middle" x="440.42" y="-303.1" font-family="Times New Roman,serif" font-size="14.00">4261</text>
</g>
<!-- Nr3&#45;&gt;Nr5 -->
<g id="edge11" class="edge">
<title>Nr3&#45;&gt;Nr5</title>
<path fill="none" stroke="#020057" d="M251.77,-336.91C259.51,-326.03 270.98,-311.14 283,-299.9 293.26,-290.3 299.26,-292.03 309,-281.9 350.48,-238.79 338.05,-203 391,-175.16 425.95,-156.79 439.72,-166.87 478,-157.16 494.47,-152.99 512.54,-147.65 527.68,-142.95"/>
<polygon fill="#020057" stroke="#020057" points="528.69,-146.31 537.18,-139.97 526.59,-139.63 528.69,-146.31"/>
<text text-anchor="middle" x="366.05" y="-240.73" font-family="Times New Roman,serif" font-size="14.00">2943</text>
</g>
<!-- Nr3&#45;&gt;Nr5 -->
<g id="edge26" class="edge">
<title>Nr3&#45;&gt;Nr5</title>
<path fill="none" stroke="#bd9322" d="M255.49,-338.03C268.06,-326.31 287.85,-309.65 308,-299.9 338.47,-285.16 356.16,-303.76 382,-281.9 408.68,-259.34 390.74,-236.59 413,-209.66 430.43,-188.57 440.06,-188.41 464,-175.16 484.91,-163.59 509.52,-152.73 528.85,-144.78"/>
<polygon fill="#bd9322" stroke="#bd9322" points="529.91,-148.13 537.86,-141.13 527.28,-141.64 529.91,-148.13"/>
<text text-anchor="middle" x="426.5" y="-240.73" font-family="Times New Roman,serif" font-size="14.00">4073</text>
</g>
<!-- Nr3&#45;&gt;Nr5 -->
<g id="edge41" class="edge">
<title>Nr3&#45;&gt;Nr5</title>
<path fill="none" stroke="#bedd7a" d="M241.58,-335.21C241.71,-306.39 246.09,-245.84 278,-209.66 338.8,-140.75 388.44,-177.75 478,-157.16 494.56,-153.36 512.64,-148.06 527.77,-143.3"/>
<polygon fill="#bedd7a" stroke="#bedd7a" points="528.8,-146.65 537.25,-140.26 526.66,-139.98 528.8,-146.65"/>
<text text-anchor="middle" x="291.5" y="-240.73" font-family="Times New Roman,serif" font-size="14.00">4261</text>
</g>
<!-- Nr3&#45;&gt;Nr6 -->
<g id="edge12" class="edge">
<title>Nr3&#45;&gt;Nr6</title>
<path fill="none" stroke="#f68ddb" d="M222.74,-336.64C216.87,-331.01 211.15,-324.08 208,-316.4 187.02,-265.28 201.95,-108.14 242,-70.07 273.28,-40.34 323.27,-30.82 357.99,-27.95"/>
<polygon fill="#f68ddb" stroke="#f68ddb" points="357.88,-31.46 367.62,-27.31 357.41,-24.48 357.88,-31.46"/>
<text text-anchor="middle" x="217.16" y="-178.36" font-family="Times New Roman,serif" font-size="14.00">2943</text>
</g>
<!-- Nr3&#45;&gt;Nr6 -->
<g id="edge27" class="edge">
<title>Nr3&#45;&gt;Nr6</title>
<path fill="none" stroke="#c20162" d="M239.78,-335.41C239.06,-329.45 238.35,-322.63 238,-316.4 235.81,-277.87 245.26,-212.32 246,-209.66 264.91,-141.38 270.01,-117.1 323,-70.07 333.77,-60.52 346.98,-52.03 359.25,-45.17"/>
<polygon fill="#c20162" stroke="#c20162" points="360.77,-48.33 367.93,-40.52 357.46,-42.16 360.77,-48.33"/>
<text text-anchor="middle" x="268.95" y="-178.36" font-family="Times New Roman,serif" font-size="14.00">4073</text>
</g>
<!-- Nr3&#45;&gt;Nr6 -->
<g id="edge42" class="edge">
<title>Nr3&#45;&gt;Nr6</title>
<path fill="none" stroke="#aa0bd6" d="M203.1,-346.56C182.34,-342.04 157.86,-333.3 142,-316.4 97.74,-269.25 96.65,-239 107,-175.16 114.88,-126.57 104.61,-102.1 142,-70.07 173.79,-42.84 294.58,-32.45 357.83,-28.81"/>
<polygon fill="#aa0bd6" stroke="#aa0bd6" points="358,-32.31 367.8,-28.27 357.62,-25.32 358,-32.31"/>
<text text-anchor="middle" x="120.5" y="-178.36" font-family="Times New Roman,serif" font-size="14.00">4261</text>
</g>
<!-- Nr3&#45;&gt;Nr6 -->
<g id="edge47" class="edge">
<title>Nr3&#45;&gt;Nr6</title>
<path fill="none" stroke="#2eb50b" d="M218.75,-337.03C211.43,-331.43 203.96,-324.42 199,-316.4 165.32,-261.99 157.48,-237.71 171,-175.16 178.28,-141.49 186.28,-134.69 203,-104.57 211.94,-88.46 210.94,-80.7 226,-70.07 265.27,-42.35 320.69,-32.45 357.68,-28.93"/>
<polygon fill="#2eb50b" stroke="#2eb50b" points="357.81,-32.43 367.49,-28.12 357.24,-25.46 357.81,-32.43"/>
<text text-anchor="middle" x="184.5" y="-178.36" font-family="Times New Roman,serif" font-size="14.00">4532</text>
</g>
<!-- Nr4&#45;&gt;Nr5 -->
<g id="edge13" class="edge">
<title>Nr4&#45;&gt;Nr5</title>
<path fill="none" stroke="#8b1c35" d="M473,-223.47C467.72,-208.84 464,-189.55 473,-175.16 484.66,-156.53 506.88,-145.71 526.2,-139.55"/>
<polygon fill="#8b1c35" stroke="#8b1c35" points="527.03,-142.95 535.69,-136.84 525.11,-136.22 527.03,-142.95"/>
<text text-anchor="middle" x="486.5" y="-178.36" font-family="Times New Roman,serif" font-size="14.00">2943</text>
</g>
<!-- Nr4&#45;&gt;Nr5 -->
<g id="edge28" class="edge">
<title>Nr4&#45;&gt;Nr5</title>
<path fill="none" stroke="#4fb02d" d="M501.34,-209.53C507.71,-198.24 515.23,-185.88 523,-175.16 527.98,-168.29 533.88,-161.28 539.57,-154.95"/>
<polygon fill="#4fb02d" stroke="#4fb02d" points="541.84,-157.65 546.06,-147.94 536.7,-152.9 541.84,-157.65"/>
<text text-anchor="middle" x="536.5" y="-178.36" font-family="Times New Roman,serif" font-size="14.00">4073</text>
</g>
<!-- Nr4&#45;&gt;Nr5 -->
<g id="edge43" class="edge">
<title>Nr4&#45;&gt;Nr5</title>
<path fill="none" stroke="#fa29f2" d="M510.74,-229.28C524.63,-220.11 540.47,-207.24 550,-191.66 554.41,-184.46 557.23,-175.94 559.04,-167.63"/>
<polygon fill="#fa29f2" stroke="#fa29f2" points="562.44,-168.5 560.66,-158.05 555.54,-167.33 562.44,-168.5"/>
<text text-anchor="middle" x="570.18" y="-178.36" font-family="Times New Roman,serif" font-size="14.00">4261</text>
</g>
<!-- Nr4&#45;&gt;Nr6 -->
<g id="edge14" class="edge">
<title>Nr4&#45;&gt;Nr6</title>
<path fill="none" stroke="#157aed" d="M474.12,-222.3C458.37,-182.42 425.57,-99.36 408.26,-55.54"/>
<polygon fill="#157aed" stroke="#157aed" points="411.59,-54.46 404.67,-46.44 405.08,-57.03 411.59,-54.46"/>
<text text-anchor="middle" x="460.64" y="-125.82" font-family="Times New Roman,serif" font-size="14.00">2943</text>
</g>
<!-- Nr4&#45;&gt;Nr6 -->
<g id="edge29" class="edge">
<title>Nr4&#45;&gt;Nr6</title>
<path fill="none" stroke="#c7d72e" d="M467.32,-230.29C458.47,-222.93 446.84,-214.54 435,-209.66 410.27,-199.47 333.44,-211.94 316,-191.66 290.76,-162.32 301.06,-140.28 316,-104.57 325.28,-82.4 344.45,-63.58 361.81,-50.03"/>
<polygon fill="#c7d72e" stroke="#c7d72e" points="363.52,-53.12 369.45,-44.34 359.34,-47.51 363.52,-53.12"/>
<text text-anchor="middle" x="329.5" y="-125.82" font-family="Times New Roman,serif" font-size="14.00">4073</text>
</g>
<!-- Nr4&#45;&gt;Nr6 -->
<g id="edge44" class="edge">
<title>Nr4&#45;&gt;Nr6</title>
<path fill="none" stroke="#1f0b80" d="M464.93,-232.79C444.28,-217.87 411.58,-190.31 398,-157.16 385.76,-127.3 386.87,-90.24 390.24,-63.32"/>
<polygon fill="#1f0b80" stroke="#1f0b80" points="393.68,-63.99 391.64,-53.59 386.75,-62.99 393.68,-63.99"/>
<text text-anchor="middle" x="411.5" y="-125.82" font-family="Times New Roman,serif" font-size="14.00">4261</text>
</g>
<!-- Nr5&#45;&gt;Nr6 -->
<g id="edge15" class="edge">
<title>Nr5&#45;&gt;Nr6</title>
<path fill="none" stroke="#9a2f86" d="M559.49,-110.7C556.8,-97.58 551.28,-80.69 540,-70.07 512.26,-43.96 469.25,-33.64 437.64,-29.59"/>
<polygon fill="#9a2f86" stroke="#9a2f86" points="438.38,-26.15 428.06,-28.53 437.61,-33.11 438.38,-26.15"/>
<text text-anchor="middle" x="564.5" y="-73.27" font-family="Times New Roman,serif" font-size="14.00">2943</text>
</g>
<!-- Nr5&#45;&gt;Nr6 -->
<g id="edge30" class="edge">
<title>Nr5&#45;&gt;Nr6</title>
<path fill="none" stroke="#fb530e" d="M529.92,-118.86C509.87,-111.26 483.96,-100.1 463,-86.57 446.78,-76.1 430.65,-61.64 418.39,-49.6"/>
<polygon fill="#fb530e" stroke="#fb530e" points="421.17,-47.43 411.64,-42.8 416.2,-52.36 421.17,-47.43"/>
<text text-anchor="middle" x="476.5" y="-73.27" font-family="Times New Roman,serif" font-size="14.00">4073</text>
</g>
<!-- Nr5&#45;&gt;Nr6 -->
<g id="edge45" class="edge">
<title>Nr5&#45;&gt;Nr6</title>
<path fill="none" stroke="#585f59" d="M537.33,-109.97C528.36,-102.67 518.18,-94.3 509,-86.57 500.45,-79.37 499.39,-76.15 490,-70.07 471.48,-58.09 449.09,-47.62 430.92,-40.01"/>
<polygon fill="#585f59" stroke="#585f59" points="432.48,-36.87 421.9,-36.33 429.83,-43.35 432.48,-36.87"/>
<text text-anchor="middle" x="522.5" y="-73.27" font-family="Times New Roman,serif" font-size="14.00">4261</text>
</g>
</g>
</svg>
